<svg version="1.1" id="Layer_1" xmlns="http://www.w3.org/2000/svg" xmlns:xlink="http://www.w3.org/1999/xlink" x="0px" y="0px" viewBox="0 0 500 500" style="width: 179px;" xml:space="preserve" data-imageid="online-shopping-1-97" imageName="Online Shopping 1" class="illustrations_image">
<style type="text/css">
	.st0{fill:#D1D3D4;}
	.st1{fill:#231F20;}
	.st2{fill:#FFFFFF;}
	.st3{fill:#68E1FD;}
	.st4{fill:none;}
</style>
<g id="Shadow">
	<path class="st0" d="M371.8,396.1c0,3.3-28.1,6-69,6S140,400,140,396.6s116.7-6.5,157.6-6.5S371.8,392.8,371.8,396.1z"/>
</g>
<g id="Online_Shop">
	<path class="st1" d="M140,396.6h145.7c5.1,0.1,9.2-4,9.3-9.1c0-0.2,0-0.5,0-0.7l-14.6-278c-0.3-5.5-4.8-9.8-10.4-9.8H124.3&#10;&#9;&#9;c-5.1,0-9.2,4-9.3,9.1c0,0.2,0,0.5,0,0.7l14.6,278C130,392.3,134.5,396.6,140,396.6z"/>
	<path class="st1" d="M285.7,397.2H140c-5.8,0-10.6-4.6-11-10.4l-14.6-278c-0.4-5.4,3.7-10.1,9.1-10.4c0.3,0,0.5,0,0.8,0H270&#10;&#9;&#9;c5.8,0,10.6,4.6,11,10.4l14.6,278c0.3,5.4-3.8,10.1-9.2,10.4C286.2,397.2,286,397.2,285.7,397.2L285.7,397.2z M124.3,99.7&#10;&#9;&#9;c-4.7-0.1-8.6,3.7-8.7,8.5c0,0.2,0,0.4,0,0.7l14.6,278c0.3,5.1,4.6,9.2,9.7,9.2h145.7c4.7,0.1,8.6-3.7,8.7-8.5c0-0.2,0-0.4,0-0.7&#10;&#9;&#9;l-14.6-278c-0.3-5.1-4.6-9.2-9.7-9.2H124.3z"/>
	<path class="st2" d="M150.7,396.1h145.8c5.1,0.1,9.2-4,9.3-9.1c0-0.2,0-0.5,0-0.7l-14.6-278c-0.3-5.5-4.8-9.7-10.3-9.8H135.1&#10;&#9;&#9;c-5.1,0-9.2,4-9.3,9.1c0,0.2,0,0.5,0,0.7l14.6,278C140.8,391.8,145.3,396.1,150.7,396.1z"/>
	<path class="st1" d="M296.5,396.8H150.7c-5.8-0.1-10.6-4.6-11-10.5l-14.6-278c-0.4-5.5,3.8-10.2,9.2-10.5c0.3,0,0.5,0,0.8,0h145.7&#10;&#9;&#9;c5.8,0.1,10.6,4.6,11,10.5l14.6,278c0.4,5.5-3.8,10.2-9.2,10.5C297,396.8,296.7,396.9,296.5,396.8L296.5,396.8z M135.1,99.2&#10;&#9;&#9;c-4.7-0.1-8.5,3.7-8.6,8.4c0,0.2,0,0.4,0,0.7l14.6,278c0.3,5.1,4.5,9.1,9.6,9.1h145.8c4.7,0.1,8.5-3.7,8.6-8.4c0-0.2,0-0.5,0-0.7&#10;&#9;&#9;l-14.6-278c-0.3-5.1-4.5-9.1-9.6-9.1L135.1,99.2z"/>
	<path class="st0" d="M285.4,378.7H160.1c-4.7-0.1-8.6-3.7-8.9-8.4l-12.9-244.7c-0.3-4.4,3.1-8.2,7.5-8.5c0.2,0,0.4,0,0.6,0h125.3&#10;&#9;&#9;c4.7,0,8.6,3.7,8.9,8.4l12.9,244.7c0.3,4.4-3.1,8.2-7.5,8.5C285.8,378.7,285.6,378.7,285.4,378.7L285.4,378.7z M146.4,118.4&#10;&#9;&#9;c-3.6-0.1-6.6,2.9-6.7,6.5c0,0.2,0,0.3,0,0.5l12.9,244.7c0.2,4,3.5,7.1,7.5,7.1h125.3c3.6,0.1,6.6-2.9,6.7-6.5c0-0.2,0-0.3,0-0.5&#10;&#9;&#9;l-12.9-244.7c-0.3-4-3.5-7.1-7.5-7.1L146.4,118.4z"/>
	<path class="st0" d="M232.6,109.7h-27.4c-0.4,0-0.7-0.3-0.7-0.7c0-0.4,0.3-0.7,0.7-0.7l0,0h27.4c0.4,0,0.7,0.3,0.7,0.7&#10;&#9;&#9;C233.3,109.4,233,109.7,232.6,109.7z"/>
	<path class="st0" d="M201.2,109.7h-4.8c-0.4,0-0.7-0.3-0.7-0.7c0-0.4,0.3-0.7,0.7-0.7h4.8c0.4,0,0.7,0.3,0.7,0.7&#10;&#9;&#9;C201.9,109.4,201.6,109.7,201.2,109.7L201.2,109.7z"/>
	<path class="st0" d="M122.9,165.4c-0.4,0-0.7-0.3-0.7-0.7l-1.5-28.7c0-0.4,0.3-0.7,0.7-0.7c0.4,0,0.7,0.3,0.7,0.7l0,0l1.5,28.7&#10;&#9;&#9;C123.6,165.1,123.3,165.4,122.9,165.4C122.9,165.4,122.9,165.4,122.9,165.4L122.9,165.4z"/>
	<polygon class="st2" points="178.5,147 163.1,147 137.9,116.8 153.3,116.8 &#9;"/>
	<path class="st1" d="M178.5,147.6h-15.5c-0.2,0-0.4-0.1-0.5-0.2l-25.2-30.2c-0.2-0.2-0.2-0.5-0.1-0.7c0.1-0.2,0.3-0.4,0.6-0.4h15.5&#10;&#9;&#9;c0.2,0,0.4,0.1,0.5,0.2l25.2,30.2c0.2,0.3,0.1,0.7-0.2,0.9C178.7,147.5,178.6,147.5,178.5,147.6L178.5,147.6z M163.4,146.3h13.8&#10;&#9;&#9;L153,117.4h-13.8L163.4,146.3z"/>
	<path class="st2" d="M178.5,147h-15.5l0.5,7.7c0.3,3.9,3.5,6.9,7.4,7h1.6c3.6,0,6.5-2.8,6.5-6.3c0-0.2,0-0.4,0-0.7L178.5,147z"/>
	<path class="st1" d="M172.6,162.2H171c-4.2-0.1-7.7-3.3-8.1-7.6l-0.5-7.7c0-0.2,0-0.3,0.2-0.5c0.1-0.1,0.3-0.2,0.5-0.2h15.5&#10;&#9;&#9;c0.3,0,0.6,0.3,0.6,0.6l0.5,7.7c0.1,2-0.5,3.9-1.9,5.4C176.4,161.4,174.5,162.3,172.6,162.2z M163.8,147.6l0.5,7&#10;&#9;&#9;c0.3,3.6,3.2,6.4,6.8,6.4h1.6c3.2,0.1,5.8-2.5,5.9-5.7c0-0.2,0-0.4,0-0.6l-0.5-7.1L163.8,147.6z"/>
	<polygon class="st3" points="194,147 178.5,147 153.3,116.8 168.8,116.8 &#9;"/>
	<path class="st1" d="M194,147.6h-15.5c-0.2,0-0.4-0.1-0.5-0.2l-25.2-30.2c-0.2-0.3-0.1-0.7,0.2-0.9c0.1-0.1,0.2-0.1,0.3-0.1h15.5&#10;&#9;&#9;c0.2,0,0.4,0.1,0.5,0.2l25.2,30.2c0.2,0.2,0.2,0.5,0.1,0.7C194.5,147.5,194.2,147.6,194,147.6z M178.8,146.3h13.8l-24.1-28.9h-13.8&#10;&#9;&#9;L178.8,146.3z"/>
	<path class="st3" d="M194,147h-15.5l0.5,7.7c0.3,3.9,3.5,7,7.4,7h1.5c3.6,0,6.5-2.8,6.5-6.3c0-0.2,0-0.4,0-0.7L194,147z"/>
	<path class="st1" d="M188,162.2h-1.6c-4.2-0.1-7.7-3.3-8.1-7.6l-0.5-7.7c0-0.2,0-0.3,0.2-0.5c0.1-0.1,0.3-0.2,0.5-0.2H194&#10;&#9;&#9;c0.3,0,0.6,0.3,0.6,0.6l0.5,7.7c0.1,2-0.5,3.9-1.9,5.4C191.9,161.5,190,162.3,188,162.2z M179.2,147.6l0.5,7&#10;&#9;&#9;c0.3,3.6,3.2,6.3,6.8,6.4h1.6c3.2,0.1,5.8-2.5,5.9-5.7c0-0.2,0-0.4,0-0.6l-0.5-7.1H179.2z"/>
	<polygon class="st2" points="209.5,147 194,147 168.8,116.8 184.3,116.8 &#9;"/>
	<path class="st1" d="M209.5,147.6H194c-0.2,0-0.4-0.1-0.5-0.2l-25.2-30.2c-0.2-0.2-0.2-0.5-0.1-0.7c0.1-0.2,0.3-0.4,0.6-0.4h15.5&#10;&#9;&#9;c0.2,0,0.4,0.1,0.5,0.2l25.2,30.2c0.2,0.3,0.1,0.7-0.2,0.9C209.7,147.5,209.6,147.5,209.5,147.6L209.5,147.6z M194.3,146.3h13.8&#10;&#9;&#9;L184,117.4h-13.8L194.3,146.3z"/>
	<path class="st2" d="M209.5,147H194l0.5,7.7c0.3,3.9,3.5,7,7.4,7h1.6c3.6,0.1,6.5-2.8,6.5-6.3c0-0.2,0-0.4,0-0.7L209.5,147z"/>
	<path class="st1" d="M203.5,162.2h-1.6c-4.2-0.1-7.7-3.3-8.1-7.6l-0.5-7.7c0-0.2,0-0.3,0.2-0.5c0.1-0.1,0.3-0.2,0.5-0.2h15.5&#10;&#9;&#9;c0.3,0,0.6,0.3,0.6,0.6l0.5,7.7c0.3,3.9-2.6,7.3-6.4,7.6C204,162.2,203.7,162.2,203.5,162.2L203.5,162.2z M194.7,147.6l0.5,7&#10;&#9;&#9;c0.3,3.6,3.2,6.3,6.8,6.4h1.6c3.2,0,5.8-2.5,5.9-5.7c0-0.2,0-0.4,0-0.5l-0.5-7.1H194.7z"/>
	<polygon class="st3" points="225,147 209.5,147 184.3,116.8 199.8,116.8 &#9;"/>
	<path class="st1" d="M225,147.6h-15.5c-0.2,0-0.4-0.1-0.5-0.2l-25.2-30.2c-0.2-0.2-0.2-0.5-0.1-0.7c0.1-0.2,0.3-0.4,0.6-0.4h15.5&#10;&#9;&#9;c0.2,0,0.4,0.1,0.5,0.2l25.2,30.2c0.2,0.3,0.1,0.7-0.2,0.9C225.2,147.5,225.1,147.5,225,147.6L225,147.6z M209.8,146.3h13.8&#10;&#9;&#9;l-24.1-28.9h-13.8L209.8,146.3z"/>
	<path class="st3" d="M225,147h-15.5l0.5,7.7c0.3,3.9,3.5,6.9,7.4,7h1.6c3.5,0.1,6.5-2.8,6.5-6.3c0-0.2,0-0.5,0-0.7L225,147z"/>
	<path class="st1" d="M219,162.2h-1.6c-4.2-0.1-7.7-3.4-8-7.6l-0.5-7.7c0-0.2,0-0.3,0.2-0.5c0.1-0.1,0.3-0.2,0.5-0.2H225&#10;&#9;&#9;c0.3,0,0.6,0.3,0.6,0.6l0.5,7.7c0.3,3.9-2.6,7.3-6.4,7.6C219.5,162.2,219.3,162.2,219,162.2L219,162.2z M210.2,147.6l0.5,7&#10;&#9;&#9;c0.3,3.6,3.2,6.3,6.8,6.4h1.6c3.2,0,5.8-2.5,5.9-5.7c0-0.2,0-0.4,0-0.5l-0.5-7.1H210.2z"/>
	<polygon class="st2" points="240.4,147 225,147 199.8,116.8 215.2,116.8 &#9;"/>
	<path class="st1" d="M240.4,147.6H225c-0.2,0-0.4-0.1-0.5-0.2l-25.2-30.2c-0.2-0.2-0.2-0.5-0.1-0.7c0.1-0.2,0.3-0.4,0.6-0.4h15.5&#10;&#9;&#9;c0.2,0,0.4,0.1,0.5,0.2l25.2,30.2c0.2,0.2,0.2,0.5,0.1,0.7C241,147.5,240.7,147.6,240.4,147.6z M225.3,146.3h13.8l-24.2-28.9h-13.8&#10;&#9;&#9;L225.3,146.3z"/>
	<path class="st2" d="M240.4,147H225l0.5,7.7c0.3,3.9,3.5,6.9,7.4,7h1.6c3.5,0.1,6.5-2.8,6.5-6.3c0-0.2,0-0.5,0-0.7L240.4,147z"/>
	<path class="st1" d="M234.5,162.2h-1.6c-4.2-0.1-7.7-3.3-8.1-7.6l-0.5-7.7c0-0.2,0-0.3,0.2-0.5c0.1-0.1,0.3-0.2,0.5-0.2h15.5&#10;&#9;&#9;c0.3,0,0.6,0.3,0.6,0.6l0.5,7.7c0.3,3.9-2.6,7.3-6.4,7.6C234.9,162.2,234.7,162.2,234.5,162.2L234.5,162.2z M225.7,147.6l0.5,7&#10;&#9;&#9;c0.3,3.6,3.2,6.3,6.8,6.4h1.6c3.2,0.1,5.8-2.5,5.9-5.7c0-0.2,0-0.4,0-0.6l-0.5-7.1L225.7,147.6z"/>
	<polygon class="st3" points="255.9,147 240.4,147 215.2,116.8 230.7,116.8 &#9;"/>
	<path class="st1" d="M255.9,147.6h-15.5c-0.2,0-0.4-0.1-0.5-0.2l-25.2-30.2c-0.2-0.2-0.2-0.5-0.1-0.7c0.1-0.2,0.3-0.4,0.6-0.4h15.5&#10;&#9;&#9;c0.2,0,0.4,0.1,0.5,0.2l25.2,30.2c0.2,0.3,0.1,0.7-0.2,0.9C256.2,147.5,256,147.5,255.9,147.6L255.9,147.6z M240.8,146.3h13.8&#10;&#9;&#9;l-24.2-28.9h-13.8L240.8,146.3z"/>
	<path class="st3" d="M255.9,147h-15.5l0.5,7.7c0.3,3.9,3.5,6.9,7.4,7h1.6c3.5,0.1,6.5-2.8,6.5-6.3c0-0.2,0-0.5,0-0.7L255.9,147z"/>
	<path class="st1" d="M250,162.2h-1.6c-4.2-0.1-7.7-3.3-8.1-7.6l-0.5-7.7c0-0.2,0-0.3,0.2-0.5c0.1-0.1,0.3-0.2,0.5-0.2H256&#10;&#9;&#9;c0.3,0,0.6,0.3,0.6,0.6l0.5,7.7c0.3,3.9-2.6,7.3-6.5,7.6C250.4,162.2,250.2,162.2,250,162.2L250,162.2z M241.2,147.6l0.5,7&#10;&#9;&#9;c0.3,3.6,3.2,6.3,6.8,6.4h1.6c3.2,0.1,5.8-2.5,5.9-5.7c0-0.2,0-0.4,0-0.6l-0.5-7.1H241.2z"/>
	<polygon class="st2" points="271.4,147 255.9,147 230.7,116.8 246.2,116.8 &#9;"/>
	<path class="st1" d="M271.4,147.6h-15.5c-0.2,0-0.4-0.1-0.5-0.2l-25.2-30.2c-0.2-0.2-0.2-0.5-0.1-0.7c0.1-0.2,0.3-0.4,0.6-0.4h15.5&#10;&#9;&#9;c0.2,0,0.4,0.1,0.5,0.2l25.2,30.2c0.2,0.3,0.1,0.7-0.2,0.9C271.6,147.5,271.5,147.5,271.4,147.6L271.4,147.6z M256.2,146.3H270&#10;&#9;&#9;l-24.2-28.9h-13.8L256.2,146.3z"/>
	<path class="st2" d="M271.4,147h-15.5l0.5,7.7c0.3,3.9,3.5,6.9,7.4,7h1.6c3.5,0.1,6.5-2.8,6.5-6.3c0-0.2,0-0.5,0-0.7L271.4,147z"/>
	<path class="st1" d="M265.4,162.2h-1.6c-4.2-0.1-7.7-3.3-8.1-7.6l-0.5-7.7c0-0.2,0-0.4,0.2-0.5c0.1-0.1,0.3-0.2,0.5-0.2h15.5&#10;&#9;&#9;c0.3,0,0.6,0.3,0.6,0.6l0.5,7.7c0.3,3.9-2.6,7.3-6.5,7.6C265.9,162.2,265.6,162.2,265.4,162.2z M256.6,147.6l0.5,7&#10;&#9;&#9;c0.3,3.6,3.2,6.3,6.8,6.4h1.6c3.2,0.1,5.8-2.5,5.9-5.7c0-0.2,0-0.4,0-0.6l-0.5-7.1H256.6z"/>
	<polygon class="st3" points="286.9,147 271.4,147 246.2,116.8 261.6,116.8 &#9;"/>
	<path class="st1" d="M286.9,147.6h-15.5c-0.2,0-0.4-0.1-0.5-0.2l-25.2-30.2c-0.2-0.3-0.1-0.7,0.2-0.9c0.1-0.1,0.2-0.1,0.3-0.1h15.5&#10;&#9;&#9;c0.2,0,0.4,0.1,0.5,0.2l25.2,30.2c0.2,0.2,0.2,0.5,0.1,0.7C287.3,147.5,287.1,147.6,286.9,147.6z M271.7,146.3h13.8l-24.2-28.9&#10;&#9;&#9;h-13.8L271.7,146.3z"/>
	<path class="st3" d="M286.9,147h-15.5l0.5,7.7c0.3,3.9,3.5,6.9,7.4,7h1.6c3.5,0.1,6.5-2.8,6.5-6.3c0-0.2,0-0.5,0-0.7L286.9,147z"/>
	<path class="st1" d="M280.9,162.2h-1.6c-4.2-0.1-7.7-3.3-8.1-7.6l-0.5-7.7c0-0.2,0.1-0.4,0.2-0.5c0.1-0.1,0.3-0.2,0.5-0.2h15.5&#10;&#9;&#9;c0.3,0,0.6,0.3,0.6,0.6l0.5,7.7c0.3,3.9-2.6,7.3-6.4,7.6C281.4,162.2,281.1,162.2,280.9,162.2L280.9,162.2z M272.1,147.6l0.5,7&#10;&#9;&#9;c0.3,3.6,3.2,6.3,6.8,6.4h1.6c1.6,0,3.2-0.6,4.3-1.8c1.1-1.2,1.7-2.8,1.5-4.4l-0.5-7.1H272.1z"/>
	<polygon class="st2" points="302.4,147 286.9,147 261.6,116.8 277.1,116.8 &#9;"/>
	<path class="st1" d="M302.4,147.6h-15.5c-0.2,0-0.4-0.1-0.5-0.2l-25.2-30.2c-0.2-0.2-0.2-0.5-0.1-0.7c0.1-0.2,0.3-0.4,0.6-0.4h15.5&#10;&#9;&#9;c0.2,0,0.4,0.1,0.5,0.2l25.2,30.2c0.2,0.3,0.1,0.7-0.2,0.9C302.6,147.5,302.5,147.5,302.4,147.6L302.4,147.6z M287.2,146.3H301&#10;&#9;&#9;l-24.2-28.9H263L287.2,146.3z"/>
	<path class="st2" d="M302.4,147h-15.5l0.5,7.7c0.3,3.9,3.5,6.9,7.4,7h1.6c3.5,0.1,6.5-2.8,6.5-6.3c0-0.2,0-0.5,0-0.7L302.4,147z"/>
	<path class="st1" d="M296.4,162.2h-1.6c-4.2-0.1-7.7-3.3-8.1-7.6l-0.5-7.7c0-0.2,0-0.4,0.2-0.5c0.1-0.1,0.3-0.2,0.5-0.2h15.5&#10;&#9;&#9;c0.3,0,0.6,0.3,0.6,0.6l0.5,7.7c0.3,3.9-2.6,7.3-6.4,7.6C296.8,162.2,296.6,162.2,296.4,162.2L296.4,162.2z M287.6,147.6l0.5,7&#10;&#9;&#9;c0.3,3.6,3.2,6.3,6.8,6.4h1.6c3.2,0.1,5.8-2.5,5.9-5.7c0-0.2,0-0.4,0-0.6l-0.5-7.1H287.6z"/>
	<polygon class="st1" points="137.9,116.8 139.9,147 163.1,147 &#9;"/>
	<path class="st1" d="M163.1,147.6h-23.2c-0.3,0-0.6-0.3-0.6-0.6l-2-30.2c0-0.3,0.1-0.5,0.4-0.6c0.3-0.1,0.5,0,0.7,0.2l25.2,30.2&#10;&#9;&#9;c0.2,0.2,0.2,0.4,0.1,0.6C163.5,147.4,163.3,147.6,163.1,147.6z M140.4,146.3h21.3l-23.1-27.7L140.4,146.3z"/>
	<path class="st0" d="M175.4,325c-0.2,0-0.4-0.1-0.5-0.2c-0.3-0.3-0.3-0.7,0-1c0,0,0,0,0,0l59.2-57.9c0.3-0.3,0.7-0.3,1,0&#10;&#9;&#9;s0.3,0.7,0,1L176,324.8C175.8,324.9,175.6,325,175.4,325z"/>
	<path class="st0" d="M233,186.4c-0.2,0-0.4-0.1-0.5-0.2c-0.3-0.3-0.2-0.7,0.1-1l18.1-15.2c0.3-0.3,0.7-0.2,1,0.1c0,0,0,0,0,0&#10;&#9;&#9;c0.3,0.3,0.2,0.7-0.1,1l-18.1,15.2C233.3,186.3,233.2,186.4,233,186.4z"/>
	<path class="st0" d="M180.5,296c-0.4,0-0.7-0.3-0.7-0.7c0-0.2,0.1-0.4,0.2-0.5l19.3-17.3c0.2-0.3,0.7-0.4,1-0.2s0.4,0.7,0.2,1&#10;&#9;&#9;c-0.1,0.1-0.1,0.2-0.2,0.2l-19.3,17.3C180.8,295.9,180.6,296,180.5,296z"/>
</g>
<g id="Character">
	<path class="st1" d="M379.3,220.1c-0.1,0-0.2,0-0.3-0.1c-0.2-0.1-0.4-0.4-0.4-0.7c-0.2-1.8-4-15.3-7.6-15.1c-0.4,0-0.8,0.2-1.1,0.6&#10;&#9;&#9;c-2.1,2.4-1.7,10.7-1.4,13.8c0,0.4-0.3,0.7-0.7,0.7c-0.4,0-0.7-0.2-0.7-0.6c0-0.5-1.1-11.5,1.8-14.8c0.5-0.6,1.2-1,2-1.1&#10;&#9;&#9;c1.5-0.1,2.9,1,4.4,3.3c2.4,3.9,5.1,12.7,4.6,13.5C379.8,220,379.6,220.1,379.3,220.1z"/>
	<line class="st4" x1="369" y1="223" x2="373.6" y2="262.5"/>
	<path class="st0" d="M373.6,263.2c-0.4,0-0.6-0.3-0.7-0.6l-4.5-39.4c0-0.4,0.2-0.7,0.6-0.8c0,0,0,0,0,0c0.4,0,0.7,0.2,0.8,0.6&#10;&#9;&#9;c0,0,0,0,0,0l4.5,39.4C374.3,262.8,374,263.1,373.6,263.2L373.6,263.2z"/>
	<path class="st2" d="M352.5,267.3c-0.3-0.6,2.1-46.6,2.1-46.6L382,224l6,42.5L352.5,267.3z"/>
	<path class="st0" d="M352.5,268c-0.3,0-0.5-0.2-0.6-0.4c-0.1-0.2-0.3-0.7,2-46.9c0-0.2,0.1-0.4,0.2-0.5c0.1-0.1,0.3-0.2,0.5-0.2&#10;&#9;&#9;l27.4,3.3c0.3,0,0.6,0.3,0.6,0.6l6,42.5c0,0.2,0,0.4-0.2,0.5c-0.1,0.2-0.3,0.2-0.5,0.2L352.5,268L352.5,268z M355.3,221.5&#10;&#9;&#9;c-0.9,16.7-2,40.9-2.1,45.1l34-0.8l-5.8-41.2L355.3,221.5z"/>
	<polygon class="st0" points="354.6,220.7 358.5,215.8 388.9,216.4 382,224 &#9;"/>
	<path class="st0" d="M382,224.7L382,224.7l-27.5-3.3c-0.2,0-0.4-0.2-0.5-0.4c-0.1-0.2-0.1-0.5,0.1-0.7l3.9-4.9&#10;&#9;&#9;c0.1-0.2,0.3-0.3,0.6-0.3l30.4,0.6c0.3,0,0.5,0.2,0.6,0.4c0.1,0.3,0.1,0.5-0.1,0.8l-6.9,7.6C382.4,224.6,382.2,224.7,382,224.7z&#10;&#9;&#9; M356,220.1l25.8,3.1l5.6-6.2l-28.5-0.6L356,220.1z"/>
	<polygon class="st2" points="388.9,216.4 396,262.1 388,266.5 382,224 &#9;"/>
	<path class="st0" d="M388,267.2c-0.3,0-0.6-0.3-0.7-0.6l-6-42.5c0-0.2,0-0.4,0.2-0.6l6.9-7.6c0.2-0.2,0.5-0.3,0.7-0.2&#10;&#9;&#9;c0.3,0.1,0.5,0.3,0.5,0.6l7.1,45.7c0.1,0.3-0.1,0.6-0.4,0.7l-8,4.4C388.2,267.2,388.1,267.2,388,267.2z M382.7,224.2l5.8,41.1&#10;&#9;&#9;l6.6-3.7l-6.7-43.6L382.7,224.2z"/>
	<path class="st1" d="M374.3,228L374.3,228c-0.4,0-0.7-0.4-0.7-0.7c0,0,0,0,0,0c0.5-8.3-0.3-21.5-4.3-21.9c-0.7,0-1.3,0.2-1.8,0.6&#10;&#9;&#9;c-3.5,3-5,14.8-5.3,19.1c0,0.4-0.4,0.7-0.7,0.7s-0.7-0.4-0.7-0.7c0-0.7,1.1-16.1,5.8-20c0.8-0.7,1.8-1.1,2.8-1&#10;&#9;&#9;c6.7,0.6,5.7,21,5.6,23.4C375,227.7,374.6,228,374.3,228z"/>
	<path class="st1" d="M371.4,220c-0.3,0-0.5-0.2-0.6-0.4c-0.2-0.5-4.9-11.9-2.9-16.4c0.3-0.8,1-1.5,1.8-1.8c1.5-0.6,3.4,0.2,5.7,2.2&#10;&#9;&#9;c4,3.6,9.5,12.1,9.3,13c-0.1,0.4-0.5,0.6-0.8,0.5c-0.3-0.1-0.5-0.3-0.5-0.5c-0.6-1.5-9.1-15.3-13.1-13.8c-0.5,0.2-0.8,0.5-1,1&#10;&#9;&#9;c-1.4,3.3,1.6,12.2,2.9,15.3c0.1,0.4,0,0.8-0.4,0.9c0,0,0,0,0,0C371.6,220,371.5,220,371.4,220z"/>
	<line class="st4" x1="374.1" y1="223.6" x2="391.8" y2="264.6"/>
	<path class="st0" d="M391.8,265.3c-0.3,0-0.5-0.2-0.6-0.4l-17.7-41c-0.2-0.3-0.1-0.8,0.3-1c0.3-0.2,0.8-0.1,1,0.3&#10;&#9;&#9;c0,0,0,0.1,0.1,0.1l17.7,40.9c0.2,0.4,0,0.8-0.4,0.9C392,265.2,391.9,265.3,391.8,265.3z"/>
	<path class="st2" d="M370.7,276.6c-0.5-0.5-12.9-50.8-12.9-50.8l30.5-5.3l20.3,43.7L370.7,276.6z"/>
	<path class="st0" d="M370.7,277.3c-0.2,0-0.4-0.1-0.5-0.2c-0.1-0.2-0.6-0.7-13-51.1c0-0.2,0-0.4,0.1-0.6c0.1-0.2,0.3-0.3,0.5-0.3&#10;&#9;&#9;l30.5-5.3c0.3-0.1,0.6,0.1,0.8,0.4l20.2,43.7c0.2,0.3,0.1,0.8-0.3,0.9c0,0-0.1,0-0.1,0.1l-37.9,12.3L370.7,277.3z M358.7,226.4&#10;&#9;&#9;c4.5,18.4,11.2,45,12.4,49.3l36.5-11.9l-19.7-42.5L358.7,226.4z"/>
	<polygon class="st0" points="357.8,225.8 360.5,219.2 393.3,210.1 388.4,220.5 &#9;"/>
	<path class="st0" d="M357.8,226.5c-0.2,0-0.4-0.1-0.5-0.3c-0.2-0.2-0.2-0.5-0.1-0.7l2.6-6.6c0.1-0.2,0.2-0.4,0.5-0.4l32.9-9.2&#10;&#9;&#9;c0.3-0.1,0.5,0,0.7,0.2c0.2,0.2,0.2,0.5,0.1,0.8l-5,10.4c-0.1,0.2-0.3,0.4-0.5,0.4l-30.4,5.3L357.8,226.5z M361,219.8l-2,5.1&#10;&#9;&#9;l28.9-5.1l4.2-8.7L361,219.8z"/>
	<polygon class="st2" points="393.3,210.1 415.8,256.9 408.6,264.2 388.4,220.5 &#9;"/>
	<path class="st0" d="M408.6,264.9h-0.1c-0.2,0-0.4-0.2-0.5-0.4l-20.2-43.7c-0.1-0.2-0.1-0.4,0-0.6l5-10.4c0.2-0.3,0.6-0.5,1-0.3&#10;&#9;&#9;c0.1,0.1,0.2,0.2,0.3,0.3l22.4,46.8c0.1,0.3,0.1,0.6-0.1,0.8l-7.1,7.3C409,264.8,408.8,264.9,408.6,264.9z M389.1,220.5l19.7,42.5&#10;&#9;&#9;l6.1-6.2l-21.6-45.1L389.1,220.5z"/>
	<path class="st1" d="M366.6,229c-0.3,0-0.6-0.2-0.7-0.6c-0.2-0.7-4-17.6-0.3-23.4c0.6-1,1.5-1.7,2.7-1.9&#10;&#9;&#9;c7.3-1.5,12.9,20.7,13.5,23.2c0.1,0.4-0.2,0.7-0.5,0.8c-0.4,0.1-0.7-0.1-0.8-0.5c-2.2-9.1-7.4-23.1-11.8-22.2&#10;&#9;&#9;c-0.7,0.2-1.4,0.6-1.8,1.3c-2.8,4.4-0.6,17.6,0.5,22.3c0.1,0.4-0.2,0.8-0.5,0.8L366.6,229z"/>
	<path class="st2" d="M304.3,227.5c-1-3.7-0.2-7.4,4.4-8.2c6.9-1.2,14.6,4,21.1,6.1c2.3,0.7,14.4,3.7,14.4,3.7s1.9-3.4,2.4-4.7&#10;&#9;&#9;c1.3-3,2.4-6,3.5-9c2.4-6.3,4.1-12.3,8-17.8c0.8-1.1,1.7-2.2,2.6-3.3c2.4-2.9,5.6-5.1,9.1-6.4c0.2-0.1,0.5-0.1,0.7,0&#10;&#9;&#9;c0.4,0.3,0.1,0.9-0.3,1.3l-4.7,4.1c1.3-1.2,2.7-2.2,4.3-3c0.7-0.4,3-1.9,3.7-1.1c1.1,1.1-1.4,2-1.9,2.4c-1.3,1-2.5,2.2-3.9,3.1&#10;&#9;&#9;c1.7-1.2,3.6-2.2,5.5-3c0.9-0.4,2.4-0.4,2.6,0.5c0.1,0.6-0.4,1.2-0.9,1.6l-4,3.4c1.1-0.9,3.2,0.9,3.5,1.8c0.6,1.6,0.3,3.3-0.7,4.7&#10;&#9;&#9;c-0.2,0.3-0.5,0.6-0.9,0.7c-0.4,0.2-0.8,0.1-1.1-0.1c-1.3-1,0.1-3.3-1.9-3.9c-0.9-0.2-1.7,0.3-2,1.2c-0.2,0.8,0,1.7,0.6,2.4&#10;&#9;&#9;c0.5,0.5,1.2,0.9,1.1,1.6c0,0.4-0.3,0.8-0.6,1c-1,0.6-2.4,0.3-3.1-0.7c0,0,0,0,0-0.1c-0.3-0.5-0.5-1.3-1.1-1.1&#10;&#9;&#9;c-0.2,0.1-0.4,0.2-0.5,0.4c-0.7,0.8-3.2,14.9-3.7,19.6c-0.8,6.4-2,20-10.1,21.8c-0.2,0.1-0.5,0.1-0.8,0.1&#10;&#9;&#9;c-7.6,0.8-15.4-1.3-22.5-3.7c-5.9-2-12.8-3.6-17.8-7.4C306.9,233.5,305.1,230.7,304.3,227.5z"/>
	<path class="st1" d="M346.4,247.5c-6.9,0-13.6-1.9-19.4-3.9c-1.1-0.4-2.3-0.8-3.5-1.1c-5.1-1.6-10.3-3.3-14.5-6.4&#10;&#9;&#9;c-2.6-2.2-4.4-5.1-5.3-8.4l0,0c-0.7-2.6-0.5-4.8,0.5-6.4c1-1.5,2.6-2.4,4.4-2.6c5.1-0.9,10.4,1.5,15.5,3.8c2.1,0.9,4,1.8,5.9,2.4&#10;&#9;&#9;s11.6,3,13.9,3.6c0.5-0.9,1.8-3.2,2.2-4.2c1.3-3,2.5-6.1,3.5-9c0.4-1.1,0.8-2.2,1.2-3.2c1.9-5.2,3.6-10.1,6.9-14.7&#10;&#9;&#9;c0.8-1.2,1.7-2.3,2.6-3.3c2.5-3,5.7-5.3,9.4-6.6c0.4-0.2,0.8-0.2,1.2,0c0.3,0.2,0.5,0.5,0.5,0.8c0,0.2,0,0.4-0.1,0.6&#10;&#9;&#9;c1-0.4,2-0.7,2.7,0c0.3,0.3,0.5,0.7,0.4,1.2c-0.1,0.4-0.3,0.7-0.5,1c0.6-0.1,1.2-0.1,1.8,0.2c0.4,0.2,0.7,0.6,0.8,1&#10;&#9;&#9;c0.2,1.1-0.8,2-1.1,2.3l-2.6,2.2c1,0.5,1.8,1.3,2.4,2.3c0.7,1.8,0.4,3.8-0.8,5.3c-0.3,0.4-0.7,0.7-1.1,0.9&#10;&#9;&#9;c-0.6,0.3-1.2,0.2-1.7-0.2c-0.6-0.6-0.9-1.4-0.9-2.2c-0.1-1-0.1-1.3-0.8-1.5c-0.5-0.1-1.1,0.2-1.2,0.8c-0.2,0.6,0,1.3,0.5,1.7&#10;&#9;&#9;c0.1,0.1,0.2,0.2,0.3,0.3c0.6,0.4,0.9,1.1,1,1.8c0,0.6-0.4,1.2-0.9,1.5c-1.3,0.8-3.1,0.4-3.9-0.9c0,0,0-0.1-0.1-0.1l-0.1-0.2&#10;&#9;&#9;c-0.1-0.2-0.2-0.4-0.4-0.6c0,0,0,0.1-0.1,0.2c-0.6,1-3,14.4-3.6,19.2l-0.1,0.9c-0.8,6.9-2.3,19.6-10.4,21.4&#10;&#9;&#9;c-0.3,0.1-0.6,0.1-0.8,0.1C348.7,247.4,347.5,247.5,346.4,247.5z M310.8,219.8c-0.7,0-1.3,0.1-2,0.2c-1.4,0.1-2.7,0.9-3.5,2&#10;&#9;&#9;c-1,1.6-0.8,3.8-0.4,5.4l0,0c0.8,3,2.5,5.7,4.8,7.7c4,3,9.1,4.6,14.1,6.2c1.2,0.4,2.4,0.8,3.5,1.1c6.6,2.2,14.5,4.4,22.2,3.7&#10;&#9;&#9;c0.2,0,0.5-0.1,0.7-0.1c7.2-1.6,8.7-13.8,9.5-20.3l0.1-0.9c0.4-3.5,2.9-18.8,3.9-19.9c0.2-0.3,0.5-0.5,0.8-0.6&#10;&#9;&#9;c1-0.2,1.5,0.8,1.7,1.3l0.1,0.2c0.2,0.4,0.6,0.6,1,0.7c0.4,0.1,0.8,0,1.2-0.2c0.2-0.1,0.3-0.3,0.4-0.5c0-0.2-0.3-0.5-0.6-0.8&#10;&#9;&#9;c-0.1-0.1-0.3-0.2-0.4-0.4c-0.8-0.8-1.1-1.9-0.8-3c0.4-1.2,1.6-1.8,2.8-1.6c1.6,0.4,1.7,1.8,1.8,2.6c0,0.7,0.1,1.1,0.4,1.3&#10;&#9;&#9;c0.1,0.1,0.3,0.1,0.5,0c0.3-0.1,0.5-0.3,0.6-0.5c0.9-1.1,1.1-2.6,0.6-4c-0.4-0.8-1.2-1.4-2-1.7c-0.4-0.1-0.5,0-0.6,0.1l0,0&#10;&#9;&#9;c-0.3,0.2-0.7,0.2-0.9-0.1c-0.2-0.3-0.2-0.7,0.1-0.9l0,0l4-3.4c0.5-0.4,0.8-0.8,0.7-1c0-0.1-0.1-0.2-0.1-0.2&#10;&#9;&#9;c-0.5-0.2-1.1-0.1-1.6,0.1c-1.9,0.8-3.7,1.7-5.4,2.9l0,0l0,0c-0.3,0.1-0.7,0-0.8-0.3c-0.1-0.2-0.1-0.5,0.1-0.7l0,0&#10;&#9;&#9;c0.8-0.6,1.6-1.2,2.3-1.8c0.5-0.4,1-0.8,1.5-1.2c0.1-0.1,0.4-0.2,0.6-0.4s1.3-0.7,1.3-1l0,0c0,0,0-0.1-0.1-0.1&#10;&#9;&#9;c-0.1-0.1-0.5-0.2-2.5,0.9l-0.5,0.2c-1.1,0.6-2.2,1.2-3.1,2l-1.1,0.9c-0.3,0.2-0.7,0.2-0.9,0c-0.2-0.3-0.2-0.7,0-0.9l0,0&#10;&#9;&#9;c0.4-0.3,0.7-0.6,1.1-0.9l3.6-3.1c0,0,0.1-0.1,0.1-0.1c-3.4,1.3-6.4,3.4-8.7,6.2c-0.9,1-1.7,2.1-2.5,3.2c-3.2,4.5-4.9,9.3-6.8,14.4&#10;&#9;&#9;c-0.4,1.1-0.8,2.2-1.2,3.3c-1.1,2.9-2.3,6-3.6,9c-0.6,1.3-2.4,4.6-2.5,4.8c-0.1,0.3-0.4,0.4-0.7,0.3c-0.5-0.1-12.2-2.9-14.4-3.7&#10;&#9;&#9;c-1.9-0.6-3.9-1.5-6-2.4C319.3,221.8,315,219.8,310.8,219.8z"/>
	<path class="st2" d="M251.5,216.4l-23.5,6l-8.6-31.9c0,0-1.6-7.6-3.4-8.8c-3.4-2.5-12.7-0.9-14.3,3.3c-0.2,0.6-0.3,1.2-0.3,1.8&#10;&#9;&#9;c0,1.8,0.7,3.5,1.9,4.7c1.6,1.6,5.4,1.3,5.7,3.1c0.2,0.9-0.9,2.3-1,3.3c0,1.2,0.1,2.4,0.3,3.5c0.6,5.1,1.3,10.2,2.1,15.3&#10;&#9;&#9;c0.7,5,1.7,10,3,14.9c0.7,2.6,1.5,7,3.8,8.8c0.3,0.3,0.6,0.4,1,0.5c6.7,1,35.9-7,35.9-7"/>
	<path class="st1" d="M219.6,241.8c-0.5,0-1,0-1.5-0.1c-0.5-0.1-0.9-0.3-1.3-0.6c-2.2-1.6-3.1-5.3-3.8-8l-0.3-1.1&#10;&#9;&#9;c-1.3-4.9-2.3-10-3-15c-0.8-4.6-1.4-9.7-2.1-15.3c0-0.3-0.1-0.6-0.1-0.8c-0.2-0.9-0.2-1.9-0.2-2.8c0.1-0.6,0.3-1.1,0.5-1.6&#10;&#9;&#9;c0.3-0.5,0.4-1,0.5-1.5c-0.1-0.6-1.2-0.9-2.3-1.2c-3.2-0.5-5.5-3.4-5.3-6.7c0-0.7,0.1-1.4,0.4-2.1c0.7-1.8,2.8-3.3,5.7-4.2&#10;&#9;&#9;c3.6-1.1,7.6-0.8,9.6,0.6c1.8,1.3,3.3,7.9,3.6,9.2l8.4,31.2l22.9-5.9c0.3-0.1,0.7,0.1,0.8,0.5c0.1,0.3-0.1,0.7-0.5,0.8l-23.5,6&#10;&#9;&#9;c-0.3,0.1-0.7-0.1-0.8-0.4l-8.6-31.9c-0.6-2.9-2-7.7-3.1-8.5c-1.7-1.2-5.2-1.4-8.5-0.4c-2.5,0.7-4.3,2-4.9,3.4&#10;&#9;&#9;c-0.2,0.5-0.3,1.1-0.3,1.6c0,1.6,0.6,3.1,1.7,4.3c0.8,0.6,1.7,1,2.7,1.2c1.5,0.4,3,0.9,3.2,2.2c0,0.8-0.2,1.6-0.6,2.2&#10;&#9;&#9;c-0.2,0.4-0.3,0.8-0.4,1.2c0,0.8,0,1.7,0.2,2.5c0,0.3,0.1,0.6,0.1,0.9c0.7,5.6,1.4,10.6,2.1,15.3c0.7,5,1.7,10,3,14.9&#10;&#9;&#9;c0.1,0.4,0.2,0.8,0.3,1.2c0.6,2.5,1.5,5.9,3.3,7.2c0.2,0.2,0.5,0.3,0.7,0.4c6.5,1,35.3-7,35.6-7c0.3-0.1,0.7,0.2,0.8,0.5&#10;&#9;&#9;c0.1,0.3-0.1,0.6-0.4,0.7C253.2,234.9,228.3,241.8,219.6,241.8z"/>
	<path class="st2" d="M296.4,201.7l9.9-0.9c0,0-3.7-3.8-3-6.9s2.7-3.3-0.8-8.8c-2-3.1-4.6-5.5-5.4-9.2c-0.9-4.3-3.6-6.2-8.2-5.1&#10;&#9;&#9;c-1.4,0.5-2.8,0.8-4.3,0.9c-1.3,0.1-2.7-0.2-4-0.2c-3.8,0-7.3,2.1-9.1,5.4c-0.7,1.4-0.3,3.1-1,4.2c-0.6,0.9-2.5,1.5-3.4,2.2&#10;&#9;&#9;c-2.2,1.7-2.8,3.7-2.3,6.4c0.9,5.1,5.7,7.6,0.9,10.7s-5,6.4-5,6.4L296.4,201.7z"/>
	<path class="st1" d="M260.8,207.4c-0.2,0-0.3-0.1-0.4-0.2c-0.1-0.1-0.2-0.3-0.2-0.5c0-0.1,0.3-3.8,5.3-7c2.6-1.6,2-2.9,0.6-5.3&#10;&#9;&#9;c-0.9-1.5-1.5-3.1-1.9-4.7c-0.6-3.1,0.2-5.2,2.5-7c0.5-0.3,0.9-0.6,1.4-0.8c0.7-0.3,1.3-0.7,1.8-1.2c0.2-0.5,0.4-1.1,0.4-1.7&#10;&#9;&#9;c0-0.9,0.2-1.7,0.6-2.5c1.9-3.6,5.7-5.8,9.7-5.8c0.6,0,1.2,0.1,1.8,0.1c0.7,0.1,1.5,0.1,2.2,0.1c1.1-0.1,2.2-0.3,3.2-0.6l1-0.3&#10;&#9;&#9;c3.4-1.4,7.2,0.3,8.5,3.6c0.3,0.6,0.4,1.3,0.5,1.9c0.5,2.5,2,4.4,3.5,6.5c0.6,0.8,1.2,1.6,1.8,2.5c2.7,4.1,2.3,5.5,1.5,7.4&#10;&#9;&#9;c-0.3,0.6-0.5,1.2-0.6,1.9c-0.5,2.3,1.9,5.4,2.9,6.4c0.2,0.2,0.2,0.4,0.1,0.7c-0.1,0.2-0.3,0.4-0.5,0.4l-9.9,0.9l-35.6,5.1&#10;&#9;&#9;L260.8,207.4z M280.4,172.1c-3.5,0-6.8,2-8.5,5.1c-0.3,0.6-0.4,1.3-0.4,2c0,0.8-0.2,1.6-0.6,2.3c-0.6,0.7-1.4,1.3-2.3,1.6&#10;&#9;&#9;c-0.4,0.2-0.8,0.4-1.2,0.7c-1.9,1.5-2.5,3.2-2,5.8c0.3,1.5,0.9,3,1.8,4.4c1.3,2.4,2.5,4.7-1.1,7c-3.1,1.9-4.1,4-4.5,5.1l34.7-5l0,0&#10;&#9;&#9;l8.7-0.8c-1.1-1.4-2.9-4.1-2.4-6.6c0.2-0.7,0.4-1.4,0.7-2.1c0.6-1.5,1-2.4-1.4-6.2c-0.6-0.9-1.2-1.7-1.8-2.4&#10;&#9;&#9;c-1.5-2.1-3.1-4.2-3.7-7c-0.2-2.9-2.7-5.2-5.6-5c-0.6,0-1.2,0.2-1.8,0.4l-0.9,0.3c-1.1,0.3-2.3,0.6-3.5,0.7c-0.8,0-1.6,0-2.4-0.1&#10;&#9;&#9;c-0.5-0.1-1.1-0.1-1.7-0.1L280.4,172.1z"/>
	<path class="st1" d="M188.6,211.1c-0.1,0-0.3,0-0.4-0.1c-0.3-0.2-0.5-0.6-0.3-1c0,0,0,0,0,0c3.5-5.8,15.2-24.6,18.4-25.1&#10;&#9;&#9;c0.3-0.1,0.7,0.1,0.9,0.3c2.1,2-3.8,15.6-6.5,21.3c-0.2,0.4-0.6,0.5-0.9,0.3c-0.4-0.2-0.5-0.6-0.3-0.9l0,0&#10;&#9;&#9;c3.8-8.2,7.4-17.8,6.9-19.5c-2.1,1-10.2,12.9-17.2,24.3C189.1,210.9,188.9,211.1,188.6,211.1z"/>
	<polygon class="st2" points="185.8,208.5 151.4,252.9 156.8,257.1 159,266.4 201.4,250.7 209.5,206.7 &#9;"/>
	<path class="st0" d="M159,267.1c-0.3,0-0.6-0.2-0.7-0.5l-2.2-9l-5.2-4c-0.3-0.2-0.4-0.7-0.1-1c0,0,0,0,0,0l34.4-44.4&#10;&#9;&#9;c0.1-0.2,0.3-0.3,0.5-0.3l23.7-1.8c0.4,0,0.7,0.3,0.7,0.6c0,0.1,0,0.1,0,0.2l-8.1,44c-0.1,0.2-0.2,0.4-0.4,0.5L159.2,267&#10;&#9;&#9;C159.2,267,159.1,267.1,159,267.1z M152.4,252.8l4.8,3.8c0.1,0.1,0.2,0.2,0.2,0.4l2.1,8.5l41.3-15.3l7.8-42.7l-22.5,1.7&#10;&#9;&#9;L152.4,252.8z"/>
	<polygon class="st0" points="190.1,216 184.4,208.5 203.5,200.6 207.9,205.4 &#9;"/>
	<path class="st0" d="M190.1,216.7c-0.2,0-0.4-0.1-0.6-0.3l-5.8-7.5c-0.2-0.3-0.2-0.7,0.1-1c0,0,0.1-0.1,0.2-0.1l19.2-7.8&#10;&#9;&#9;c0.3-0.1,0.6,0,0.8,0.2l4.4,4.8c0.1,0.2,0.2,0.4,0.2,0.6c0,0.2-0.2,0.4-0.3,0.5l-17.8,10.6C190.4,216.7,190.2,216.7,190.1,216.7z&#10;&#9;&#9; M185.5,208.8l4.8,6.3l16.5-9.8l-3.5-3.8L185.5,208.8z"/>
	<path class="st1" d="M199.8,214.6h-0.1c-0.4-0.1-0.6-0.4-0.6-0.8c0-0.1,1-7.1,2.5-14c3-14.5,4.7-14.6,5.6-14.6&#10;&#9;&#9;c0.4,0,0.8,0.2,1.1,0.5c2.6,2.6,1.7,19.9,1.5,23.4c0,0.4-0.4,0.7-0.7,0.7c0,0,0,0,0,0c-0.4,0-0.7-0.3-0.7-0.7c0,0,0,0,0,0&#10;&#9;&#9;c0.7-11.6,0.1-21.9-1.2-22.4c-1.7,0.5-4.8,14.7-6.7,27.4C200.4,214.3,200.1,214.6,199.8,214.6z"/>
	<polygon class="st2" points="194.5,214.5 182.9,263.6 194.2,271.1 213.9,256.1 216.2,209.2 &#9;"/>
	<path class="st0" d="M194.2,271.8c-0.1,0-0.3,0-0.4-0.1l-11.3-7.6c-0.2-0.2-0.4-0.5-0.3-0.7l11.5-49c0.1-0.3,0.3-0.4,0.5-0.5&#10;&#9;&#9;l21.8-5.4c0.2-0.1,0.4,0,0.6,0.1c0.2,0.1,0.3,0.4,0.3,0.6l-2.4,46.8c0,0.2-0.1,0.4-0.3,0.5l-19.7,15.1&#10;&#9;&#9;C194.5,271.8,194.4,271.8,194.2,271.8z M183.7,263.3l10.4,7l19-14.6l2.3-45.6l-20.5,5L183.7,263.3z"/>
	<polygon class="st0" points="193.3,214.1 201,217.9 216.2,209.2 211.4,204.6 &#9;"/>
	<path class="st0" d="M201,218.6c-0.1,0-0.2,0-0.3-0.1l-7.7-3.9c-0.3-0.2-0.5-0.6-0.3-0.9c0.1-0.1,0.2-0.2,0.3-0.3l18.2-9.5&#10;&#9;&#9;c0.3-0.1,0.6-0.1,0.8,0.1l4.8,4.6c0.2,0.2,0.2,0.4,0.2,0.6c0,0.2-0.1,0.4-0.3,0.5l-15.2,8.7C201.3,218.6,201.1,218.6,201,218.6z&#10;&#9;&#9; M194.8,214l6.2,3.1l14.1-8.1l-3.8-3.6L194.8,214z"/>
	<line class="st4" x1="189.2" y1="218.9" x2="161.7" y2="260.9"/>
	<path class="st0" d="M161.7,261.6c-0.1,0-0.3,0-0.4-0.1c-0.3-0.2-0.4-0.6-0.2-0.9c0,0,0,0,0-0.1l27.6-42c0.2-0.3,0.6-0.4,1-0.2&#10;&#9;&#9;c0,0,0,0,0,0c0.3,0.2,0.4,0.6,0.2,1c0,0,0,0,0,0l-27.6,42C162.1,261.5,161.9,261.6,161.7,261.6z"/>
	<line class="st4" x1="202.2" y1="222.6" x2="196.1" y2="267.7"/>
	<path class="st0" d="M196.1,268.4L196.1,268.4c-0.5-0.1-0.7-0.4-0.7-0.8c0,0,0,0,0,0l6.1-45.1c0-0.4,0.3-0.7,0.7-0.7&#10;&#9;&#9;c0.4,0,0.7,0.3,0.7,0.7c0,0,0,0.1,0,0.1l-6.1,45.1C196.7,268.2,196.4,268.4,196.1,268.4z"/>
	<path class="st1" d="M205.9,220.4L205.9,220.4c-0.4,0-0.7-0.3-0.7-0.7c0.1-15.2,0.8-33.5,3.5-33.7h0.1c2.2,0,4.3,10.5,6.1,31.1&#10;&#9;&#9;c0,0.4-0.3,0.7-0.7,0.7c-0.3,0-0.6-0.2-0.7-0.6c-1.2-13.3-3.2-27.7-4.7-29.7c-1.3,2.2-2.2,17.8-2.3,32.2&#10;&#9;&#9;C206.6,220.1,206.3,220.4,205.9,220.4z"/>
	<path class="st2" d="M256.7,314.8l-9.7,28.5l-34.9-17.1c0,0-12.8,17-10.5,17.4s10.4-1.7,10.4-1.7s38.9,27.7,43.6,23.6&#10;&#9;&#9;s20.5-45.3,20.5-45.3"/>
	<path class="st1" d="M254.2,366.5c-2.7,0-8.5-2.1-22.5-10.8c-9.3-5.8-18.2-12.1-19.8-13.2c-1.6,0.4-8.2,2.1-10.4,1.7&#10;&#9;&#9;c-0.3-0.1-0.6-0.3-0.7-0.6c-0.8-2.1,7.3-13.2,10.9-17.8c0.2-0.2,0.5-0.3,0.8-0.2l34.2,16.8l9.4-27.8c0.1-0.3,0.5-0.5,0.8-0.4&#10;&#9;&#9;c0,0,0,0,0,0c0.3,0.1,0.5,0.5,0.4,0.8c0,0,0,0,0,0l-9.6,28.5c-0.1,0.2-0.2,0.3-0.4,0.4c-0.2,0.1-0.4,0.1-0.5,0L212.4,327&#10;&#9;&#9;c-5.1,6.8-10.2,14.3-10.4,16c2,0.2,7.8-1.2,9.9-1.8c0.2,0,0.4,0,0.5,0.1c14.9,10.6,39.6,26.4,42.8,23.6&#10;&#9;&#9;c3.6-3.2,14.9-30.9,20.4-45.1c0.1-0.3,0.5-0.5,0.8-0.4s0.5,0.5,0.4,0.8l0,0c-0.6,1.7-16,41.4-20.7,45.6&#10;&#9;&#9;C255.6,366.4,254.9,366.6,254.2,366.5z"/>
	<path class="st2" d="M318,311.7l33.7,64.5c0,0,18.5-6.6,17.1-4.7s-27.2,17.5-27.2,17.5l-47-73.2"/>
	<path class="st1" d="M341.6,389.6c-0.2,0-0.4-0.1-0.5-0.3L294,316c-0.2-0.3-0.1-0.7,0.2-0.9c0,0,0,0,0,0c0.3-0.2,0.7-0.1,0.9,0.2&#10;&#9;&#9;c0,0,0,0,0,0l46.7,72.7c8.8-5.3,22-13.5,25.6-16.2c-5.2,1.4-10.4,3-15.4,4.9c-0.3,0.1-0.6,0-0.8-0.3L317.4,312&#10;&#9;&#9;c-0.2-0.3,0-0.7,0.3-0.9c0.3-0.2,0.7-0.1,0.8,0.2c0,0,0,0,0,0l33.5,64c16.3-5.9,17-5,17.3-4.5c0.2,0.3,0.2,0.7,0,1&#10;&#9;&#9;c-1.4,2-24.7,16.1-27.4,17.7C341.9,389.6,341.7,389.6,341.6,389.6z"/>
	<path class="st1" d="M267.8,213.5c-9,8.9-6.7,25.4-7.2,39.4l44.4,6.8c0,0,2.4-39.5-3.9-45.6S276.8,204.6,267.8,213.5z"/>
	<path class="st1" d="M305,260.3L305,260.3l-44.5-6.8c-0.3-0.1-0.5-0.3-0.5-0.6c0.1-2.8,0.1-5.8,0.1-8.7c0-11.7-0.1-23.9,7.3-31.1&#10;&#9;&#9;l0,0c9-8.9,27.4-5.9,34.2,0.6c6.5,6.2,4.2,44.4,4.1,46.1c0,0.2-0.1,0.3-0.2,0.4C305.3,260.3,305.1,260.3,305,260.3z M261.2,252.4&#10;&#9;&#9;l43.2,6.6c0.3-5.2,1.9-39.1-3.7-44.4c-5.8-5.5-23.5-9.6-32.5-0.6c-7,6.9-7,18.8-6.9,30.3C261.3,246.9,261.3,249.7,261.2,252.4&#10;&#9;&#9;L261.2,252.4z"/>
	<polygon class="st1" points="300.5,236.6 319.1,241.6 324,221.1 298.1,211.9 &#9;"/>
	<path class="st1" d="M319.1,242.2c-0.1,0-0.1,0-0.2,0l-18.7-5c-0.2-0.1-0.4-0.3-0.5-0.5l-2.3-24.6c0-0.2,0.1-0.4,0.2-0.5&#10;&#9;&#9;c0.2-0.1,0.4-0.2,0.6-0.1l25.9,9.2c0.3,0.1,0.5,0.4,0.4,0.7l-4.9,20.4c0,0.2-0.1,0.3-0.3,0.4C319.3,242.2,319.2,242.2,319.1,242.2z&#10;&#9;&#9; M301,236.1l17.7,4.7l4.6-19.3l-24.5-8.7L301,236.1z"/>
	<polyline class="st1" points="278.6,207.2 243.2,216.6 249.5,238 282.5,232 278.7,209.5 &#9;"/>
	<path class="st1" d="M249.4,238.6c-0.3,0-0.5-0.2-0.6-0.4l-6.2-21.4c-0.1-0.3,0.1-0.7,0.4-0.8c0,0,0,0,0,0l35.4-9.4&#10;&#9;&#9;c0.3-0.1,0.7,0.2,0.7,0.5c0,0.3-0.1,0.6-0.4,0.7l-34.7,9.2l5.9,20.2l31.9-5.8l-3.7-22c-0.1-0.3,0.2-0.6,0.5-0.7c0,0,0,0,0,0&#10;&#9;&#9;c0.3-0.1,0.6,0.2,0.7,0.5l3.8,22.6c0.1,0.3-0.2,0.6-0.5,0.7l-33,6L249.4,238.6z"/>
	<path class="st2" d="M291.2,202.4l0.9,8.7c0,0-0.4,4.9-5.8,3.9c-3.2-0.6-6-2.7-7.6-5.6c-0.2-0.7-0.2-1.5-0.1-2.2l-0.3-5.1&#10;&#9;&#9;c-0.1-2.6-0.5-5.2-0.4-7.8s0-5.2,0.1-7.9c-0.1-0.3,0.1-0.5,0.3-0.6c0,0,0.1,0,0.1,0c0.7-0.1,1.5-0.1,2.2,0.1c0-1.8-0.2-3.6-0.6-5.3&#10;&#9;&#9;c1.5,1.1,2.7,2.7,3.4,4.4c1.8-0.1,3.6,0,5.4,0.3c0.2-1.2,0.1-2.5-0.5-3.6c0.8,1,1.4,2,2.1,3c0.9,0.3,1.7,0.3,2.6,0.3&#10;&#9;&#9;c0.4-0.4,0.3-2.9,0.3-3.5c1.2,1.6,2.1,3.4,2.4,5.3c0.4,1.8,0.4,9.1,0.4,11C296.1,200.6,294.2,202.8,291.2,202.4z"/>
	<path class="st1" d="M287.6,215.8c-0.5,0-1-0.1-1.5-0.1c-3.4-0.7-6.3-2.8-8-5.9c-0.2-0.6-0.3-1.2-0.2-1.9c0-0.2,0-0.4,0-0.6&#10;&#9;&#9;l-0.3-5.1c0-0.8-0.1-1.7-0.2-2.6c-0.2-1.7-0.3-3.5-0.2-5.2c0-1.2,0-2.5,0-3.7s0-2.8,0.1-4.2c0-0.3,0.1-0.6,0.3-0.9&#10;&#9;&#9;c0.2-0.2,0.4-0.3,0.7-0.3c0.6-0.1,1.1-0.1,1.7-0.1c0-1.5-0.2-3-0.6-4.4c-0.1-0.3,0.1-0.7,0.5-0.8c0.2-0.1,0.4,0,0.5,0.1&#10;&#9;&#9;c1.5,1.1,2.7,2.6,3.5,4.3c1.5,0,2.9,0,4.4,0.2c0.1-0.9-0.1-1.8-0.5-2.6c-0.1-0.3,0-0.7,0.3-0.8c0.3-0.1,0.6-0.1,0.8,0.2&#10;&#9;&#9;c0.7,0.9,1.4,1.9,2,2.9c0.6,0.1,1.2,0.2,1.7,0.2c0.1-0.4,0.1-1.6,0.1-2.1c0-0.4,0-0.7,0-0.8c0-0.4,0.3-0.6,0.7-0.6&#10;&#9;&#9;c0.2,0,0.3,0.1,0.4,0.2c1.3,1.6,2.2,3.5,2.6,5.6c0.4,3.4,0.5,6.8,0.4,10.2v0.9c0.1,1.6-0.6,3.1-1.7,4.1c-0.9,0.7-2,1.1-3.1,1.1&#10;&#9;&#9;l0.8,7.9c-0.1,1.5-0.8,2.9-2,3.8C289.8,215.5,288.7,215.8,287.6,215.8z M278.6,186.6c0,1.4-0.1,2.8-0.1,4.1s0,2.5,0,3.8&#10;&#9;&#9;c0,1.7,0.1,3.4,0.2,5.1c0.1,0.9,0.1,1.7,0.2,2.6l0.3,5.1c0,0.2,0,0.4,0,0.7c0,0.4,0,0.9,0.1,1.3c1.5,2.7,4.1,4.6,7.1,5.2&#10;&#9;&#9;c1.2,0.3,2.5,0.1,3.6-0.6c0.8-0.7,1.4-1.7,1.5-2.8l-0.9-8.5c0-0.2,0.1-0.4,0.2-0.5c0.1-0.1,0.3-0.2,0.5-0.2c1,0.2,2.1-0.1,2.9-0.8&#10;&#9;&#9;c0.9-0.8,1.3-2,1.3-3.1V197c0-2.5,0-8.4-0.4-9.9c-0.3-1.2-0.7-2.4-1.2-3.4c0,1.1-0.2,1.6-0.5,1.9c-0.6,0.5-3.1-0.2-3.2-0.2&#10;&#9;&#9;c-0.2-0.1-0.3-0.2-0.4-0.3l0,0c-0.1-0.2-0.2-0.3-0.3-0.5c0,0.3-0.1,0.7-0.1,1c-0.1,0.3-0.4,0.6-0.7,0.5c-1.7-0.3-3.5-0.3-5.2-0.3&#10;&#9;&#9;c-0.3,0-0.5-0.1-0.6-0.4c-0.4-1.1-1-2-1.8-2.9c0.2,1.2,0.3,2.4,0.2,3.5c0,0.2-0.1,0.4-0.2,0.5c-0.2,0.1-0.4,0.2-0.5,0.1&#10;&#9;&#9;C279.9,186.5,279.3,186.5,278.6,186.6L278.6,186.6z"/>
	<path class="st1" d="M291.6,206.7c-2.1,0.2-4.3-0.3-6-1.6c-1.4-1.1-2.3-2.7-2.4-4.5c2.5,1.3,5.2,1.9,8,1.9L291.6,206.7z"/>
	<path class="st1" d="M290.7,207.3c-2,0-3.9-0.6-5.5-1.8c-1.6-1.2-2.5-3-2.6-5c0-0.3,0.3-0.6,0.6-0.6c0.1,0,0.2,0,0.3,0.1&#10;&#9;&#9;c2.4,1.2,5,1.8,7.7,1.8c0.3,0,0.6,0.2,0.7,0.6c0,0,0,0,0,0l0.4,4.3c0,0.3-0.2,0.6-0.5,0.7C291.3,207.3,291,207.3,290.7,207.3z&#10;&#9;&#9; M284,201.5c0.3,1.2,1,2.2,2,3c1.4,1.1,3.1,1.6,4.9,1.5l-0.2-3.1C288.4,203,286.1,202.5,284,201.5z"/>
	<path class="st1" d="M288.4,196c-0.3,0-0.6,0-0.9-0.1c-0.3-0.1-0.5-0.4-0.4-0.8c0.1-0.3,0.3-0.5,0.6-0.5c0.6,0.1,1.7,0.1,1.9-0.2&#10;&#9;&#9;c-0.7-1.4-1.5-2.7-2.6-3.9c-0.2-0.3-0.2-0.7,0.1-0.9c0.3-0.2,0.7-0.2,0.9,0.1c3.5,4.3,2.8,5.2,2.6,5.4&#10;&#9;&#9;C290,195.8,289.2,196.1,288.4,196z"/>
	<path class="st2" d="M280.3,189.7c-0.4-1.1-1.1-2-1.9-2.8c-0.9-0.8-2.1-1-3.1-0.4c-1.1,0.6-1.3,2.1-1.2,3.3&#10;&#9;&#9;c0.2,1.4,0.6,2.8,1.1,4.1c0.3,0.8,0.8,1.5,1.4,2c0.7,0.6,1.6,0.6,2.3,0.1"/>
	<path class="st1" d="M278,197c-0.6,0-1.2-0.2-1.7-0.6c-0.7-0.6-1.3-1.4-1.6-2.3c-0.6-1.4-1-2.8-1.2-4.3c-0.2-1.8,0.4-3.3,1.5-4&#10;&#9;&#9;c1.3-0.7,2.8-0.5,3.9,0.5c0.9,0.8,1.6,1.9,2.1,3c0.1,0.3,0,0.7-0.3,0.9c-0.3,0.2-0.7,0-0.9-0.3c-0.4-1-1-1.8-1.7-2.6&#10;&#9;&#9;c-0.6-0.6-1.6-0.8-2.4-0.4c-1,0.6-0.9,2.2-0.9,2.7c0.2,1.3,0.5,2.7,1.1,3.9c0.2,0.7,0.6,1.3,1.2,1.8c0.4,0.4,1,0.4,1.5,0.1&#10;&#9;&#9;c0.3-0.2,0.7-0.2,0.9,0.1s0.2,0.7-0.1,0.9C279,196.8,278.5,197,278,197z"/>
	<path class="st1" d="M339.9,386.7c0.1,0.1,13.5-8.7,13.5-8.7s-0.4-4,0.7-4.9s16.6-5.4,17.9-3.2s-29.9,22.7-29.9,22.7L339.9,386.7z"/>
	<path class="st1" d="M342.1,393.2h-0.2c-0.2-0.1-0.3-0.2-0.4-0.4l-2.2-5.8c-0.1-0.3,0-0.6,0.3-0.8l0.1,0c0.8-0.4,8.1-5.2,13.1-8.5&#10;&#9;&#9;c-0.1-1.3-0.2-4.2,1-5.1s13.5-4.6,17.4-3.9c0.5,0.1,1,0.3,1.4,0.8c0.4,0.7,1.1,1.9-14.6,13c-7.6,5.4-15.4,10.5-15.5,10.5&#10;&#9;&#9;C342.4,393.2,342.2,393.2,342.1,393.2z M340.7,387l1.8,4.6c13.7-9,28.1-19.4,29-21.5c-0.1-0.1-0.3-0.1-0.4-0.1&#10;&#9;&#9;c-3.5-0.7-15.5,3-16.5,3.6c-0.5,0.4-0.6,2.6-0.5,4.4c0,0.2-0.1,0.4-0.3,0.6C345.5,384,342.1,386.2,340.7,387z"/>
	<path class="st1" d="M215.8,327.3l-9.1,13.4l2.7,3.3c0,0-11.7,7-13.8,5.3s14.8-25,14.8-25L215.8,327.3z"/>
	<path class="st1" d="M196.5,350.1c-0.5,0-0.9-0.1-1.3-0.4c-2.1-1.7,6.8-15,14.7-25.9c0.2-0.3,0.5-0.3,0.8-0.2l5.4,3&#10;&#9;&#9;c0.1,0.1,0.3,0.2,0.3,0.4c0,0.2,0,0.3-0.1,0.5l-8.9,13l2.4,3c0.1,0.1,0.2,0.3,0.1,0.5c0,0.2-0.1,0.3-0.3,0.4&#10;&#9;&#9;C207.2,346,199.9,350.1,196.5,350.1z M210.5,325.1c-7.6,10.6-15,22.3-14.5,23.8c1,0.8,7.1-2,12.4-5.1l-2.2-2.8&#10;&#9;&#9;c-0.2-0.2-0.2-0.5,0-0.7l8.8-12.8L210.5,325.1z"/>
	<path class="st1" d="M288.4,199.3H288c-1.7-0.2-3.1-1.4-4.4-3.8c-0.2-0.3-0.1-0.7,0.2-0.8c0.3-0.2,0.7-0.1,0.8,0.2c0,0,0,0,0,0&#10;&#9;&#9;c1,2,2.1,3,3.4,3.2c1.9,0.2,3.5-1.8,3.5-1.8c0.2-0.3,0.6-0.3,0.9-0.1c0.3,0.2,0.3,0.6,0.1,0.9c0,0,0,0,0,0&#10;&#9;&#9;C292.5,197.1,290.7,199.3,288.4,199.3z"/>
	<path class="st1" d="M283,188.8c-0.1,0-0.3,0-0.4-0.1c-0.3-0.2-0.3-0.6-0.1-0.9c0,0,0,0,0,0c0.1-0.2,1.2-1.6,2.5-1.5&#10;&#9;&#9;c0.7,0.1,1.3,0.6,1.5,1.3c0.1,0.3,0,0.7-0.3,0.8c0,0,0,0,0,0c-0.3,0.1-0.7,0-0.8-0.3c-0.1-0.2-0.3-0.6-0.5-0.6s-1,0.5-1.3,1&#10;&#9;&#9;C283.4,188.8,283.2,188.8,283,188.8z"/>
	<path class="st1" d="M292.7,189c-0.2,0-0.5-0.1-0.6-0.4c-0.1-0.2-0.6-1-1.1-1.1c-0.3-0.1-0.6,0.7-0.6,0.7c-0.1,0.3-0.4,0.5-0.8,0.4&#10;&#9;&#9;c0,0,0,0,0,0c-0.3-0.1-0.5-0.4-0.4-0.8c0.2-1,1.1-1.7,2.1-1.6c0.9,0.3,1.6,0.9,1.9,1.8c0.1,0.3,0,0.7-0.3,0.8c0,0,0,0,0,0&#10;&#9;&#9;C292.9,189,292.8,189,292.7,189z"/>
	<path class="st3" d="M259.3,247.4c0,0-3.8,24.9-18.6,86.9c0,0,1.8,10.2,33.1,10.8s58.2-21.8,58.2-21.8l-24.9-71L259.3,247.4z"/>
	<polygon class="st3" points="270.9,259.4 270.5,208.8 275.8,207.1 275.9,260.3 &#9;"/>
	<polygon class="st3" points="295.5,209 294.7,257.3 299.4,258.8 300.5,210.6 &#9;"/>
	<path class="st2" d="M212.9,184.2c-1-1.2-2.6-1.9-4.2-1.8c-1.6,0.1-3.1,0.4-4.6,0.9c-0.3,0.1-0.7,0.3-0.6,0.6s0.3,0.4,0.5,0.5&#10;&#9;&#9;c1.7,0.7,3.5,1,5.3,1c-1,0.9-1,2.5-0.7,3.8c0.3,1.8,1.2,3.4,2.6,4.6c1.4,1.2,3.4,1.4,5,0.5"/>
	<path class="st1" d="M214.1,195.5c-1.2,0-2.4-0.4-3.4-1.2c-1.5-1.3-2.5-3.1-2.8-5c-0.3-1.1-0.2-2.2,0.1-3.3c-1.5-0.1-3-0.4-4.3-1&#10;&#9;&#9;c-0.5-0.1-0.9-0.6-0.9-1.1c0-0.3,0.1-0.9,1.1-1.2c1.5-0.6,3.1-0.9,4.8-1l0,0c1.8-0.1,3.5,0.7,4.7,2.1c0.2,0.3,0,0.7-0.3,0.9&#10;&#9;&#9;c-0.2,0.1-0.5,0.1-0.7-0.1c-0.9-1-2.3-1.6-3.7-1.5l0,0c-1.5,0.1-2.9,0.4-4.3,0.9c1.6,0.6,3.2,0.9,4.9,0.9c0.3,0,0.5,0.2,0.6,0.4&#10;&#9;&#9;c0.1,0.2,0,0.5-0.2,0.7c-0.9,0.8-0.7,2.3-0.5,3.2c0.3,1.6,1.1,3.1,2.3,4.2c1.2,1,2.9,1.2,4.3,0.5c0.3-0.2,0.7,0,0.9,0.3&#10;&#9;&#9;c0.1,0.3,0.1,0.6-0.2,0.8C215.8,195.2,215,195.5,214.1,195.5z"/>
	<path class="st1" d="M287.3,278.7h-0.9c-15.3-0.5-16.2-17.7-16.2-17.9c0-0.2,0.1-0.4,0.2-0.5c0.1-0.1,0.3-0.2,0.5-0.2l31.8,0.3&#10;&#9;&#9;c0.4,0,0.7,0.3,0.7,0.6c0.5,5.1-0.9,9.9-3.9,13.1S292.6,278.7,287.3,278.7z M271.7,261.5c0.3,2.6,1,5.1,2.1,7.5&#10;&#9;&#9;c2.2,5.1,7.2,8.4,12.7,8.3c5.3,0.2,9.3-1.2,12-4.1c3.5-3.8,3.7-8.8,3.5-11.4L271.7,261.5z"/>
</g>
<g id="Plant">
	<ellipse class="st0" cx="101.6" cy="394" rx="11.5" ry="1.8"/>
	<path class="st0" d="M103.8,341.6c0.1-1.6-0.2-3.2-1-4.7c-0.8-1-1.5-2-2.1-3c-0.9-1.9-0.3-4.1-0.5-6.2c-0.2-1.7-1-3.4-2.2-4.6&#10;&#9;&#9;c-1.1-1.1-2.5-1.9-3.5-3c-1.7-1.9-2.2-4.5-3.2-6.9c-1.4-3.3-3.8-6.1-6.8-8c1.9,3.7-2.4,8.5-0.4,12.2c0.6,1.2,1.8,2,2.2,3.3&#10;&#9;&#9;c1.1,3-2.5,6.3-1.4,9.3c0.6,1.5,2.2,2.4,2.9,3.8c1,1.9,0.2,4.2,0.3,6.4c0.1,3,1.9,5.6,4.1,7.7c1.3,1.3,2.8,2.4,4.3,3.5&#10;&#9;&#9;c1.7,1.4,2.5,2.8,4,0.6C102.5,348.9,103.7,345.3,103.8,341.6z"/>
	<path class="st0" d="M105.7,343.3c-0.6-2.3-0.9-4.8,0-7c1.1-2.5,3.7-4.2,4-6.8c0.2-1.7-0.7-3.5-0.3-5.2s1.8-2.9,2.9-4.2&#10;&#9;&#9;c2.7-2.9,4.2-6.7,4.5-10.6c1.8,2.1,3.2,4.5,4.3,7.1c1,2.6,0.8,5.6-0.6,8c-0.4,0.5-0.8,1.1-1.1,1.8c-0.5,1.7,0.9,3.3,1.7,4.9&#10;&#9;&#9;c0.9,1.9,0.7,4.1-0.5,5.8c-1.5,1.9-4.4,2.6-5.2,4.9c-0.2,0.9-0.3,1.7-0.3,2.6c-0.3,3.1-2.5,5.7-5.5,6.6c-1.8,0.4-1.8-0.3-2.1-1.8&#10;&#9;&#9;C107,347.2,106.2,345.3,105.7,343.3z"/>
	<path class="st0" d="M100,326.7c-1.3-4.4-1.8-9-3.1-13.4c-1.1-3.4-2.5-6.8-4.2-10l5.5,2.3c1.8,0.7,3.7,1.6,4.5,3.3&#10;&#9;&#9;c1.4,3-1.1,6.8,0.4,9.8c0.7,1,1.4,1.9,2.2,2.7c1.6,2.3,1.4,5.4,0.5,8c-0.4,1.1-2,7-3.5,5.4c-0.6-0.6-0.7-3.1-0.9-4&#10;&#9;&#9;C100.9,329.5,100.4,328.1,100,326.7z"/>
	<path class="st0" d="M103,385.4c-1.1-7.2-4.5-32.6-4.5-32.9l0.9-0.1c0,0.2,3.4,25.7,4.5,32.9L103,385.4z"/>
	<path class="st0" d="M104.3,392.2h-1c0.1-8.6,3.6-41.3,5.7-43.6l0.7,0.6C108.3,350.8,104.3,380.5,104.3,392.2z"/>
	<path class="st0" d="M106.1,390.6h-0.9c0.8-18.5-3.1-57.3-3.1-57.6l0.9-0.1C103,333.2,106.9,372,106.1,390.6z"/>
	<path class="st2" d="M93.6,368H114l-1.4,20.6c-0.2,3.6-3.2,6.3-6.8,6.3h-4c-3.6,0-6.5-2.8-6.8-6.4L93.6,368z"/>
	<path class="st0" d="M105.8,395.7h-4c-3.9,0-7.2-3.1-7.5-7L92.9,368c0-0.4,0.3-0.7,0.7-0.7c0,0,0,0,0,0H114c0.2,0,0.4,0.1,0.5,0.2&#10;&#9;&#9;c0.1,0.1,0.2,0.3,0.2,0.5l-1.4,20.6C113,392.6,109.7,395.7,105.8,395.7z M94.3,368.7l1.4,19.9c0.2,3.2,2.9,5.7,6.1,5.7h4&#10;&#9;&#9;c3.2,0,5.9-2.5,6.1-5.7l1.4-19.9L94.3,368.7z"/>
</g>
</svg>